<svg width="360" height="640" viewBox="0 0 360 640" fill="none" xmlns="http://www.w3.org/2000/svg">
<g clip-path="url(#clip0)">
<rect width="360" height="640" fill="white"/>
<g filter="url(#filter0_d)">
<rect x="36" y="44" width="297" height="550" rx="35" fill="#FDFDFF"/>
</g>
<g filter="url(#filter1_d)">
<path d="M70.7618 443.49V445.164H65.4518V448.854H69.5918V450.528H65.4518V456H63.3998V443.49H70.7618ZM73.7075 444.768C73.3355 444.768 73.0235 444.642 72.7715 444.39C72.5195 444.138 72.3935 443.826 72.3935 443.454C72.3935 443.082 72.5195 442.77 72.7715 442.518C73.0235 442.266 73.3355 442.14 73.7075 442.14C74.0675 442.14 74.3735 442.266 74.6255 442.518C74.8775 442.77 75.0035 443.082 75.0035 443.454C75.0035 443.826 74.8775 444.138 74.6255 444.39C74.3735 444.642 74.0675 444.768 73.7075 444.768ZM74.7155 446.082V456H72.6635V446.082H74.7155ZM82.4136 445.92C83.1936 445.92 83.8896 446.082 84.5016 446.406C85.1256 446.73 85.6116 447.21 85.9596 447.846C86.3076 448.482 86.4816 449.25 86.4816 450.15V456H84.4476V450.456C84.4476 449.568 84.2256 448.89 83.7816 448.422C83.3376 447.942 82.7316 447.702 81.9636 447.702C81.1956 447.702 80.5836 447.942 80.1276 448.422C79.6836 448.89 79.4616 449.568 79.4616 450.456V456H77.4096V446.082H79.4616V447.216C79.7976 446.808 80.2236 446.49 80.7396 446.262C81.2676 446.034 81.8256 445.92 82.4136 445.92ZM88.415 450.996C88.415 450 88.619 449.118 89.027 448.35C89.447 447.582 90.011 446.988 90.719 446.568C91.439 446.136 92.237 445.92 93.113 445.92C93.761 445.92 94.397 446.064 95.021 446.352C95.657 446.628 96.161 447 96.533 447.468V442.68H98.603V456H96.533V454.506C96.197 454.986 95.729 455.382 95.129 455.694C94.541 456.006 93.863 456.162 93.095 456.162C92.231 456.162 91.439 455.946 90.719 455.514C90.011 455.07 89.447 454.458 89.027 453.678C88.619 452.886 88.415 451.992 88.415 450.996ZM96.533 451.032C96.533 450.348 96.389 449.754 96.101 449.25C95.825 448.746 95.459 448.362 95.003 448.098C94.547 447.834 94.055 447.702 93.527 447.702C92.999 447.702 92.507 447.834 92.051 448.098C91.595 448.35 91.223 448.728 90.935 449.232C90.659 449.724 90.521 450.312 90.521 450.996C90.521 451.68 90.659 452.28 90.935 452.796C91.223 453.312 91.595 453.708 92.051 453.984C92.519 454.248 93.011 454.38 93.527 454.38C94.055 454.38 94.547 454.248 95.003 453.984C95.459 453.72 95.825 453.336 96.101 452.832C96.389 452.316 96.533 451.716 96.533 451.032ZM108.368 447.756V453.246C108.368 453.618 108.452 453.888 108.62 454.056C108.8 454.212 109.1 454.29 109.52 454.29H110.78V456H109.16C108.236 456 107.528 455.784 107.036 455.352C106.544 454.92 106.298 454.218 106.298 453.246V447.756H105.128V446.082H106.298V443.616H108.368V446.082H110.78V447.756H108.368ZM117.801 445.92C118.557 445.92 119.229 446.082 119.817 446.406C120.417 446.73 120.885 447.21 121.221 447.846C121.569 448.482 121.743 449.25 121.743 450.15V456H119.709V450.456C119.709 449.568 119.487 448.89 119.043 448.422C118.599 447.942 117.993 447.702 117.225 447.702C116.457 447.702 115.845 447.942 115.389 448.422C114.945 448.89 114.723 449.568 114.723 450.456V456H112.671V442.68H114.723V447.234C115.071 446.814 115.509 446.49 116.037 446.262C116.577 446.034 117.165 445.92 117.801 445.92ZM133.451 450.798C133.451 451.17 133.427 451.506 133.379 451.806H125.801C125.861 452.598 126.155 453.234 126.683 453.714C127.211 454.194 127.859 454.434 128.627 454.434C129.731 454.434 130.511 453.972 130.967 453.048H133.181C132.881 453.96 132.335 454.71 131.543 455.298C130.763 455.874 129.791 456.162 128.627 456.162C127.679 456.162 126.827 455.952 126.071 455.532C125.327 455.1 124.739 454.5 124.307 453.732C123.887 452.952 123.677 452.052 123.677 451.032C123.677 450.012 123.881 449.118 124.289 448.35C124.709 447.57 125.291 446.97 126.035 446.55C126.791 446.13 127.655 445.92 128.627 445.92C129.563 445.92 130.397 446.124 131.129 446.532C131.861 446.94 132.431 447.516 132.839 448.26C133.247 448.992 133.451 449.838 133.451 450.798ZM131.309 450.15C131.297 449.394 131.027 448.788 130.499 448.332C129.971 447.876 129.317 447.648 128.537 447.648C127.829 447.648 127.223 447.876 126.719 448.332C126.215 448.776 125.915 449.382 125.819 450.15H131.309ZM142.198 447.54C142.546 447.084 143.02 446.7 143.62 446.388C144.22 446.076 144.898 445.92 145.654 445.92C146.518 445.92 147.304 446.136 148.012 446.568C148.732 446.988 149.296 447.582 149.704 448.35C150.112 449.118 150.316 450 150.316 450.996C150.316 451.992 150.112 452.886 149.704 453.678C149.296 454.458 148.732 455.07 148.012 455.514C147.304 455.946 146.518 456.162 145.654 456.162C144.898 456.162 144.226 456.012 143.638 455.712C143.05 455.4 142.57 455.016 142.198 454.56V460.716H140.146V446.082H142.198V447.54ZM148.228 450.996C148.228 450.312 148.084 449.724 147.796 449.232C147.52 448.728 147.148 448.35 146.68 448.098C146.224 447.834 145.732 447.702 145.204 447.702C144.688 447.702 144.196 447.834 143.728 448.098C143.272 448.362 142.9 448.746 142.612 449.25C142.336 449.754 142.198 450.348 142.198 451.032C142.198 451.716 142.336 452.316 142.612 452.832C142.9 453.336 143.272 453.72 143.728 453.984C144.196 454.248 144.688 454.38 145.204 454.38C145.732 454.38 146.224 454.248 146.68 453.984C147.148 453.708 147.52 453.312 147.796 452.796C148.084 452.28 148.228 451.68 148.228 450.996ZM161.435 450.798C161.435 451.17 161.411 451.506 161.363 451.806H153.785C153.845 452.598 154.139 453.234 154.667 453.714C155.195 454.194 155.843 454.434 156.611 454.434C157.715 454.434 158.495 453.972 158.951 453.048H161.165C160.865 453.96 160.319 454.71 159.527 455.298C158.747 455.874 157.775 456.162 156.611 456.162C155.663 456.162 154.811 455.952 154.055 455.532C153.311 455.1 152.723 454.5 152.291 453.732C151.871 452.952 151.661 452.052 151.661 451.032C151.661 450.012 151.865 449.118 152.273 448.35C152.693 447.57 153.275 446.97 154.019 446.55C154.775 446.13 155.639 445.92 156.611 445.92C157.547 445.92 158.381 446.124 159.113 446.532C159.845 446.94 160.415 447.516 160.823 448.26C161.231 448.992 161.435 449.838 161.435 450.798ZM159.293 450.15C159.281 449.394 159.011 448.788 158.483 448.332C157.955 447.876 157.301 447.648 156.521 447.648C155.813 447.648 155.207 447.876 154.703 448.332C154.199 448.776 153.899 449.382 153.803 450.15H159.293ZM165.506 447.522C165.806 447.018 166.202 446.628 166.694 446.352C167.198 446.064 167.792 445.92 168.476 445.92V448.044H167.954C167.15 448.044 166.538 448.248 166.118 448.656C165.71 449.064 165.506 449.772 165.506 450.78V456H163.454V446.082H165.506V447.522ZM174.521 447.756H172.685V456H170.615V447.756H169.445V446.082H170.615V445.38C170.615 444.24 170.915 443.412 171.515 442.896C172.127 442.368 173.081 442.104 174.377 442.104V443.814C173.753 443.814 173.315 443.934 173.063 444.174C172.811 444.402 172.685 444.804 172.685 445.38V446.082H174.521V447.756ZM185.429 450.798C185.429 451.17 185.405 451.506 185.357 451.806H177.779C177.839 452.598 178.133 453.234 178.661 453.714C179.189 454.194 179.837 454.434 180.605 454.434C181.709 454.434 182.489 453.972 182.945 453.048H185.159C184.859 453.96 184.313 454.71 183.521 455.298C182.741 455.874 181.769 456.162 180.605 456.162C179.657 456.162 178.805 455.952 178.049 455.532C177.305 455.1 176.717 454.5 176.285 453.732C175.865 452.952 175.655 452.052 175.655 451.032C175.655 450.012 175.859 449.118 176.267 448.35C176.687 447.57 177.269 446.97 178.013 446.55C178.769 446.13 179.633 445.92 180.605 445.92C181.541 445.92 182.375 446.124 183.107 446.532C183.839 446.94 184.409 447.516 184.817 448.26C185.225 448.992 185.429 449.838 185.429 450.798ZM183.287 450.15C183.275 449.394 183.005 448.788 182.477 448.332C181.949 447.876 181.295 447.648 180.515 447.648C179.807 447.648 179.201 447.876 178.697 448.332C178.193 448.776 177.893 449.382 177.797 450.15H183.287ZM186.765 451.032C186.765 450.012 186.969 449.118 187.377 448.35C187.797 447.57 188.373 446.97 189.105 446.55C189.837 446.13 190.677 445.92 191.625 445.92C192.825 445.92 193.815 446.208 194.595 446.784C195.387 447.348 195.921 448.158 196.197 449.214H193.983C193.803 448.722 193.515 448.338 193.119 448.062C192.723 447.786 192.225 447.648 191.625 447.648C190.785 447.648 190.113 447.948 189.609 448.548C189.117 449.136 188.871 449.964 188.871 451.032C188.871 452.1 189.117 452.934 189.609 453.534C190.113 454.134 190.785 454.434 191.625 454.434C192.813 454.434 193.599 453.912 193.983 452.868H196.197C195.909 453.876 195.369 454.68 194.577 455.28C193.785 455.868 192.801 456.162 191.625 456.162C190.677 456.162 189.837 455.952 189.105 455.532C188.373 455.1 187.797 454.5 187.377 453.732C186.969 452.952 186.765 452.052 186.765 451.032ZM200.636 447.756V453.246C200.636 453.618 200.72 453.888 200.888 454.056C201.068 454.212 201.368 454.29 201.788 454.29H203.048V456H201.428C200.504 456 199.796 455.784 199.304 455.352C198.812 454.92 198.566 454.218 198.566 453.246V447.756H197.396V446.082H198.566V443.616H200.636V446.082H203.048V447.756H200.636ZM208.931 451.032C208.931 450.012 209.135 449.118 209.543 448.35C209.963 447.57 210.539 446.97 211.271 446.55C212.003 446.13 212.843 445.92 213.791 445.92C214.991 445.92 215.981 446.208 216.761 446.784C217.553 447.348 218.087 448.158 218.363 449.214H216.149C215.969 448.722 215.681 448.338 215.285 448.062C214.889 447.786 214.391 447.648 213.791 447.648C212.951 447.648 212.279 447.948 211.775 448.548C211.283 449.136 211.037 449.964 211.037 451.032C211.037 452.1 211.283 452.934 211.775 453.534C212.279 454.134 212.951 454.434 213.791 454.434C214.979 454.434 215.765 453.912 216.149 452.868H218.363C218.075 453.876 217.535 454.68 216.743 455.28C215.951 455.868 214.967 456.162 213.791 456.162C212.843 456.162 212.003 455.952 211.271 455.532C210.539 455.1 209.963 454.5 209.543 453.732C209.135 452.952 208.931 452.052 208.931 451.032ZM224.71 456.162C223.774 456.162 222.928 455.952 222.172 455.532C221.416 455.1 220.822 454.5 220.39 453.732C219.958 452.952 219.742 452.052 219.742 451.032C219.742 450.024 219.964 449.13 220.408 448.35C220.852 447.57 221.458 446.97 222.226 446.55C222.994 446.13 223.852 445.92 224.8 445.92C225.748 445.92 226.606 446.13 227.374 446.55C228.142 446.97 228.748 447.57 229.192 448.35C229.636 449.13 229.858 450.024 229.858 451.032C229.858 452.04 229.63 452.934 229.174 453.714C228.718 454.494 228.094 455.1 227.302 455.532C226.522 455.952 225.658 456.162 224.71 456.162ZM224.71 454.38C225.238 454.38 225.73 454.254 226.186 454.002C226.654 453.75 227.032 453.372 227.32 452.868C227.608 452.364 227.752 451.752 227.752 451.032C227.752 450.312 227.614 449.706 227.338 449.214C227.062 448.71 226.696 448.332 226.24 448.08C225.784 447.828 225.292 447.702 224.764 447.702C224.236 447.702 223.744 447.828 223.288 448.08C222.844 448.332 222.49 448.71 222.226 449.214C221.962 449.706 221.83 450.312 221.83 451.032C221.83 452.1 222.1 452.928 222.64 453.516C223.192 454.092 223.882 454.38 224.71 454.38ZM233.938 442.68V456H231.886V442.68H233.938ZM238.684 442.68V456H236.632V442.68H238.684ZM250.468 450.798C250.468 451.17 250.444 451.506 250.396 451.806H242.818C242.878 452.598 243.172 453.234 243.7 453.714C244.228 454.194 244.876 454.434 245.644 454.434C246.748 454.434 247.528 453.972 247.984 453.048H250.198C249.898 453.96 249.352 454.71 248.56 455.298C247.78 455.874 246.808 456.162 245.644 456.162C244.696 456.162 243.844 455.952 243.088 455.532C242.344 455.1 241.756 454.5 241.324 453.732C240.904 452.952 240.694 452.052 240.694 451.032C240.694 450.012 240.898 449.118 241.306 448.35C241.726 447.57 242.308 446.97 243.052 446.55C243.808 446.13 244.672 445.92 245.644 445.92C246.58 445.92 247.414 446.124 248.146 446.532C248.878 446.94 249.448 447.516 249.856 448.26C250.264 448.992 250.468 449.838 250.468 450.798ZM248.326 450.15C248.314 449.394 248.044 448.788 247.516 448.332C246.988 447.876 246.334 447.648 245.554 447.648C244.846 447.648 244.24 447.876 243.736 448.332C243.232 448.776 242.932 449.382 242.836 450.15H248.326ZM251.804 450.996C251.804 450 252.008 449.118 252.416 448.35C252.836 447.582 253.4 446.988 254.108 446.568C254.828 446.136 255.62 445.92 256.484 445.92C257.264 445.92 257.942 446.076 258.518 446.388C259.106 446.688 259.574 447.066 259.922 447.522V446.082H261.992V456H259.922V454.524C259.574 454.992 259.1 455.382 258.5 455.694C257.9 456.006 257.216 456.162 256.448 456.162C255.596 456.162 254.816 455.946 254.108 455.514C253.4 455.07 252.836 454.458 252.416 453.678C252.008 452.886 251.804 451.992 251.804 450.996ZM259.922 451.032C259.922 450.348 259.778 449.754 259.49 449.25C259.214 448.746 258.848 448.362 258.392 448.098C257.936 447.834 257.444 447.702 256.916 447.702C256.388 447.702 255.896 447.834 255.44 448.098C254.984 448.35 254.612 448.728 254.324 449.232C254.048 449.724 253.91 450.312 253.91 450.996C253.91 451.68 254.048 452.28 254.324 452.796C254.612 453.312 254.984 453.708 255.44 453.984C255.908 454.248 256.4 454.38 256.916 454.38C257.444 454.38 257.936 454.248 258.392 453.984C258.848 453.72 259.214 453.336 259.49 452.832C259.778 452.316 259.922 451.716 259.922 451.032ZM268.683 445.92C269.451 445.92 270.129 446.076 270.717 446.388C271.317 446.688 271.785 447.066 272.121 447.522V446.082H274.191V456.162C274.191 457.074 273.999 457.884 273.615 458.592C273.231 459.312 272.673 459.876 271.941 460.284C271.221 460.692 270.357 460.896 269.349 460.896C268.005 460.896 266.889 460.578 266.001 459.942C265.113 459.318 264.609 458.466 264.489 457.386H266.523C266.679 457.902 267.009 458.316 267.513 458.628C268.029 458.952 268.641 459.114 269.349 459.114C270.177 459.114 270.843 458.862 271.347 458.358C271.863 457.854 272.121 457.122 272.121 456.162V454.506C271.773 454.974 271.299 455.37 270.699 455.694C270.111 456.006 269.439 456.162 268.683 456.162C267.819 456.162 267.027 455.946 266.307 455.514C265.599 455.07 265.035 454.458 264.615 453.678C264.207 452.886 264.003 451.992 264.003 450.996C264.003 450 264.207 449.118 264.615 448.35C265.035 447.582 265.599 446.988 266.307 446.568C267.027 446.136 267.819 445.92 268.683 445.92ZM272.121 451.032C272.121 450.348 271.977 449.754 271.689 449.25C271.413 448.746 271.047 448.362 270.591 448.098C270.135 447.834 269.643 447.702 269.115 447.702C268.587 447.702 268.095 447.834 267.639 448.098C267.183 448.35 266.811 448.728 266.523 449.232C266.247 449.724 266.109 450.312 266.109 450.996C266.109 451.68 266.247 452.28 266.523 452.796C266.811 453.312 267.183 453.708 267.639 453.984C268.107 454.248 268.599 454.38 269.115 454.38C269.643 454.38 270.135 454.248 270.591 453.984C271.047 453.72 271.413 453.336 271.689 452.832C271.977 452.316 272.121 451.716 272.121 451.032ZM285.868 446.082V456H283.816V454.83C283.492 455.238 283.066 455.562 282.538 455.802C282.022 456.03 281.47 456.144 280.882 456.144C280.102 456.144 279.4 455.982 278.776 455.658C278.164 455.334 277.678 454.854 277.318 454.218C276.97 453.582 276.796 452.814 276.796 451.914V446.082H278.83V451.608C278.83 452.496 279.052 453.18 279.496 453.66C279.94 454.128 280.546 454.362 281.314 454.362C282.082 454.362 282.688 454.128 283.132 453.66C283.588 453.18 283.816 452.496 283.816 451.608V446.082H285.868ZM297.666 450.798C297.666 451.17 297.642 451.506 297.594 451.806H290.016C290.076 452.598 290.37 453.234 290.898 453.714C291.426 454.194 292.074 454.434 292.842 454.434C293.946 454.434 294.726 453.972 295.182 453.048H297.396C297.096 453.96 296.55 454.71 295.758 455.298C294.978 455.874 294.006 456.162 292.842 456.162C291.894 456.162 291.042 455.952 290.286 455.532C289.542 455.1 288.954 454.5 288.522 453.732C288.102 452.952 287.892 452.052 287.892 451.032C287.892 450.012 288.096 449.118 288.504 448.35C288.924 447.57 289.506 446.97 290.25 446.55C291.006 446.13 291.87 445.92 292.842 445.92C293.778 445.92 294.612 446.124 295.344 446.532C296.076 446.94 296.646 447.516 297.054 448.26C297.462 448.992 297.666 449.838 297.666 450.798ZM295.524 450.15C295.512 449.394 295.242 448.788 294.714 448.332C294.186 447.876 293.532 447.648 292.752 447.648C292.044 447.648 291.438 447.876 290.934 448.332C290.43 448.776 290.13 449.382 290.034 450.15H295.524ZM303.285 456.162C302.505 456.162 301.803 456.024 301.179 455.748C300.567 455.46 300.081 455.076 299.721 454.596C299.361 454.104 299.169 453.558 299.145 452.958H301.269C301.305 453.378 301.503 453.732 301.863 454.02C302.235 454.296 302.697 454.434 303.249 454.434C303.825 454.434 304.269 454.326 304.581 454.11C304.905 453.882 305.067 453.594 305.067 453.246C305.067 452.874 304.887 452.598 304.527 452.418C304.179 452.238 303.621 452.04 302.853 451.824C302.109 451.62 301.503 451.422 301.035 451.23C300.567 451.038 300.159 450.744 299.811 450.348C299.475 449.952 299.307 449.43 299.307 448.782C299.307 448.254 299.463 447.774 299.775 447.342C300.087 446.898 300.531 446.55 301.107 446.298C301.695 446.046 302.367 445.92 303.123 445.92C304.251 445.92 305.157 446.208 305.841 446.784C306.537 447.348 306.909 448.122 306.957 449.106H304.905C304.869 448.662 304.689 448.308 304.365 448.044C304.041 447.78 303.603 447.648 303.051 447.648C302.511 447.648 302.097 447.75 301.809 447.954C301.521 448.158 301.377 448.428 301.377 448.764C301.377 449.028 301.473 449.25 301.665 449.43C301.857 449.61 302.091 449.754 302.367 449.862C302.643 449.958 303.051 450.084 303.591 450.24C304.311 450.432 304.899 450.63 305.355 450.834C305.823 451.026 306.225 451.314 306.561 451.698C306.897 452.082 307.071 452.592 307.083 453.228C307.083 453.792 306.927 454.296 306.615 454.74C306.303 455.184 305.859 455.532 305.283 455.784C304.719 456.036 304.053 456.162 303.285 456.162ZM117.48 474.756H115.644V483H113.574V474.756H112.404V473.082H113.574V472.38C113.574 471.24 113.874 470.412 114.474 469.896C115.086 469.368 116.04 469.104 117.336 469.104V470.814C116.712 470.814 116.274 470.934 116.022 471.174C115.77 471.402 115.644 471.804 115.644 472.38V473.082H117.48V474.756ZM123.6 483.162C122.664 483.162 121.818 482.952 121.062 482.532C120.306 482.1 119.712 481.5 119.28 480.732C118.848 479.952 118.632 479.052 118.632 478.032C118.632 477.024 118.854 476.13 119.298 475.35C119.742 474.57 120.348 473.97 121.116 473.55C121.884 473.13 122.742 472.92 123.69 472.92C124.638 472.92 125.496 473.13 126.264 473.55C127.032 473.97 127.638 474.57 128.082 475.35C128.526 476.13 128.748 477.024 128.748 478.032C128.748 479.04 128.52 479.934 128.064 480.714C127.608 481.494 126.984 482.1 126.192 482.532C125.412 482.952 124.548 483.162 123.6 483.162ZM123.6 481.38C124.128 481.38 124.62 481.254 125.076 481.002C125.544 480.75 125.922 480.372 126.21 479.868C126.498 479.364 126.642 478.752 126.642 478.032C126.642 477.312 126.504 476.706 126.228 476.214C125.952 475.71 125.586 475.332 125.13 475.08C124.674 474.828 124.182 474.702 123.654 474.702C123.126 474.702 122.634 474.828 122.178 475.08C121.734 475.332 121.38 475.71 121.116 476.214C120.852 476.706 120.72 477.312 120.72 478.032C120.72 479.1 120.99 479.928 121.53 480.516C122.082 481.092 122.772 481.38 123.6 481.38ZM132.829 474.522C133.129 474.018 133.525 473.628 134.017 473.352C134.521 473.064 135.115 472.92 135.799 472.92V475.044H135.277C134.473 475.044 133.861 475.248 133.441 475.656C133.033 476.064 132.829 476.772 132.829 477.78V483H130.777V473.082H132.829V474.522ZM151.289 473.082L145.205 487.662H143.081L145.097 482.838L141.191 473.082H143.477L146.267 480.642L149.165 473.082H151.289ZM157.139 483.162C156.203 483.162 155.357 482.952 154.601 482.532C153.845 482.1 153.251 481.5 152.819 480.732C152.387 479.952 152.171 479.052 152.171 478.032C152.171 477.024 152.393 476.13 152.837 475.35C153.281 474.57 153.887 473.97 154.655 473.55C155.423 473.13 156.281 472.92 157.229 472.92C158.177 472.92 159.035 473.13 159.803 473.55C160.571 473.97 161.177 474.57 161.621 475.35C162.065 476.13 162.287 477.024 162.287 478.032C162.287 479.04 162.059 479.934 161.603 480.714C161.147 481.494 160.523 482.1 159.731 482.532C158.951 482.952 158.087 483.162 157.139 483.162ZM157.139 481.38C157.667 481.38 158.159 481.254 158.615 481.002C159.083 480.75 159.461 480.372 159.749 479.868C160.037 479.364 160.181 478.752 160.181 478.032C160.181 477.312 160.043 476.706 159.767 476.214C159.491 475.71 159.125 475.332 158.669 475.08C158.213 474.828 157.721 474.702 157.193 474.702C156.665 474.702 156.173 474.828 155.717 475.08C155.273 475.332 154.919 475.71 154.655 476.214C154.391 476.706 154.259 477.312 154.259 478.032C154.259 479.1 154.529 479.928 155.069 480.516C155.621 481.092 156.311 481.38 157.139 481.38ZM173.298 473.082V483H171.246V481.83C170.922 482.238 170.496 482.562 169.968 482.802C169.452 483.03 168.9 483.144 168.312 483.144C167.532 483.144 166.83 482.982 166.206 482.658C165.594 482.334 165.108 481.854 164.748 481.218C164.4 480.582 164.226 479.814 164.226 478.914V473.082H166.26V478.608C166.26 479.496 166.482 480.18 166.926 480.66C167.37 481.128 167.976 481.362 168.744 481.362C169.512 481.362 170.118 481.128 170.562 480.66C171.018 480.18 171.246 479.496 171.246 478.608V473.082H173.298ZM178.057 474.522C178.357 474.018 178.753 473.628 179.245 473.352C179.749 473.064 180.343 472.92 181.027 472.92V475.044H180.505C179.701 475.044 179.089 475.248 178.669 475.656C178.261 476.064 178.057 476.772 178.057 477.78V483H176.005V473.082H178.057V474.522ZM191.189 483.162C190.409 483.162 189.707 483.024 189.083 482.748C188.471 482.46 187.985 482.076 187.625 481.596C187.265 481.104 187.073 480.558 187.049 479.958H189.173C189.209 480.378 189.407 480.732 189.767 481.02C190.139 481.296 190.601 481.434 191.153 481.434C191.729 481.434 192.173 481.326 192.485 481.11C192.809 480.882 192.971 480.594 192.971 480.246C192.971 479.874 192.791 479.598 192.431 479.418C192.083 479.238 191.525 479.04 190.757 478.824C190.013 478.62 189.407 478.422 188.939 478.23C188.471 478.038 188.063 477.744 187.715 477.348C187.379 476.952 187.211 476.43 187.211 475.782C187.211 475.254 187.367 474.774 187.679 474.342C187.991 473.898 188.435 473.55 189.011 473.298C189.599 473.046 190.271 472.92 191.027 472.92C192.155 472.92 193.061 473.208 193.745 473.784C194.441 474.348 194.813 475.122 194.861 476.106H192.809C192.773 475.662 192.593 475.308 192.269 475.044C191.945 474.78 191.507 474.648 190.955 474.648C190.415 474.648 190.001 474.75 189.713 474.954C189.425 475.158 189.281 475.428 189.281 475.764C189.281 476.028 189.377 476.25 189.569 476.43C189.761 476.61 189.995 476.754 190.271 476.862C190.547 476.958 190.955 477.084 191.495 477.24C192.215 477.432 192.803 477.63 193.259 477.834C193.727 478.026 194.129 478.314 194.465 478.698C194.801 479.082 194.975 479.592 194.987 480.228C194.987 480.792 194.831 481.296 194.519 481.74C194.207 482.184 193.763 482.532 193.187 482.784C192.623 483.036 191.957 483.162 191.189 483.162ZM199.598 474.756V480.246C199.598 480.618 199.682 480.888 199.85 481.056C200.03 481.212 200.33 481.29 200.75 481.29H202.01V483H200.39C199.466 483 198.758 482.784 198.266 482.352C197.774 481.92 197.528 481.218 197.528 480.246V474.756H196.358V473.082H197.528V470.616H199.598V473.082H202.01V474.756H199.598ZM203.218 477.996C203.218 477 203.422 476.118 203.83 475.35C204.25 474.582 204.814 473.988 205.522 473.568C206.242 473.136 207.034 472.92 207.898 472.92C208.678 472.92 209.356 473.076 209.932 473.388C210.52 473.688 210.988 474.066 211.336 474.522V473.082H213.406V483H211.336V481.524C210.988 481.992 210.514 482.382 209.914 482.694C209.314 483.006 208.63 483.162 207.862 483.162C207.01 483.162 206.23 482.946 205.522 482.514C204.814 482.07 204.25 481.458 203.83 480.678C203.422 479.886 203.218 478.992 203.218 477.996ZM211.336 478.032C211.336 477.348 211.192 476.754 210.904 476.25C210.628 475.746 210.262 475.362 209.806 475.098C209.35 474.834 208.858 474.702 208.33 474.702C207.802 474.702 207.31 474.834 206.854 475.098C206.398 475.35 206.026 475.728 205.738 476.232C205.462 476.724 205.324 477.312 205.324 477.996C205.324 478.68 205.462 479.28 205.738 479.796C206.026 480.312 206.398 480.708 206.854 480.984C207.322 481.248 207.814 481.38 208.33 481.38C208.858 481.38 209.35 481.248 209.806 480.984C210.262 480.72 210.628 480.336 210.904 479.832C211.192 479.316 211.336 478.716 211.336 478.032ZM218.153 474.522C218.453 474.018 218.849 473.628 219.341 473.352C219.845 473.064 220.439 472.92 221.123 472.92V475.044H220.601C219.797 475.044 219.185 475.248 218.765 475.656C218.357 476.064 218.153 476.772 218.153 477.78V483H216.101V473.082H218.153V474.522ZM225.403 474.756V480.246C225.403 480.618 225.487 480.888 225.655 481.056C225.835 481.212 226.135 481.29 226.555 481.29H227.815V483H226.195C225.271 483 224.563 482.784 224.071 482.352C223.579 481.92 223.333 481.218 223.333 480.246V474.756H222.163V473.082H223.333V470.616H225.403V473.082H227.815V474.756H225.403ZM238.688 473.082V483H236.636V481.83C236.312 482.238 235.886 482.562 235.358 482.802C234.842 483.03 234.29 483.144 233.702 483.144C232.922 483.144 232.22 482.982 231.596 482.658C230.984 482.334 230.498 481.854 230.138 481.218C229.79 480.582 229.616 479.814 229.616 478.914V473.082H231.65V478.608C231.65 479.496 231.872 480.18 232.316 480.66C232.76 481.128 233.366 481.362 234.134 481.362C234.902 481.362 235.508 481.128 235.952 480.66C236.408 480.18 236.636 479.496 236.636 478.608V473.082H238.688ZM243.448 474.54C243.796 474.084 244.27 473.7 244.87 473.388C245.47 473.076 246.148 472.92 246.904 472.92C247.768 472.92 248.554 473.136 249.262 473.568C249.982 473.988 250.546 474.582 250.954 475.35C251.362 476.118 251.566 477 251.566 477.996C251.566 478.992 251.362 479.886 250.954 480.678C250.546 481.458 249.982 482.07 249.262 482.514C248.554 482.946 247.768 483.162 246.904 483.162C246.148 483.162 245.476 483.012 244.888 482.712C244.3 482.4 243.82 482.016 243.448 481.56V487.716H241.396V473.082H243.448V474.54ZM249.478 477.996C249.478 477.312 249.334 476.724 249.046 476.232C248.77 475.728 248.398 475.35 247.93 475.098C247.474 474.834 246.982 474.702 246.454 474.702C245.938 474.702 245.446 474.834 244.978 475.098C244.522 475.362 244.15 475.746 243.862 476.25C243.586 476.754 243.448 477.348 243.448 478.032C243.448 478.716 243.586 479.316 243.862 479.832C244.15 480.336 244.522 480.72 244.978 480.984C245.446 481.248 245.938 481.38 246.454 481.38C246.982 481.38 247.474 481.248 247.93 480.984C248.398 480.708 248.77 480.312 249.046 479.796C249.334 479.28 249.478 478.68 249.478 477.996ZM256.169 470.49L255.935 479.22H254.225L253.991 470.49H256.169ZM255.143 483.126C254.771 483.126 254.459 483 254.207 482.748C253.955 482.496 253.829 482.184 253.829 481.812C253.829 481.44 253.955 481.128 254.207 480.876C254.459 480.624 254.771 480.498 255.143 480.498C255.503 480.498 255.809 480.624 256.061 480.876C256.313 481.128 256.439 481.44 256.439 481.812C256.439 482.184 256.313 482.496 256.061 482.748C255.809 483 255.503 483.126 255.143 483.126Z" fill="#1A4850"/>
</g>
<g filter="url(#filter2_d)">
<rect x="65" y="82" width="241" height="39" rx="19.5" fill="#8767F6" fill-opacity="0.27"/>
</g>
<g filter="url(#filter3_d)">
<mask id="mask0" mask-type="alpha" maskUnits="userSpaceOnUse" x="87" y="160" width="208" height="208">
<circle cx="191" cy="264" r="104" fill="#C4C4C4"/>
</mask>
<g mask="url(#mask0)">
<rect x="28.8546" y="113.2" width="305.382" height="381.491"/>
</g>
</g>
<circle cx="283.5" cy="101.5" r="14.5" fill="#8767F6"/>
<path d="M139.089 392.047L141.311 398.972L143.526 392.047H146.684V402H144.278V399.676L144.51 394.918L142.104 402H140.518L138.105 394.911L138.337 399.676V402H135.938V392.047H139.089ZM151.939 402H149.629V394.604H151.939V402ZM149.492 392.696C149.492 392.368 149.611 392.099 149.848 391.89C150.085 391.68 150.392 391.575 150.771 391.575C151.149 391.575 151.456 391.68 151.693 391.89C151.93 392.099 152.049 392.368 152.049 392.696C152.049 393.024 151.93 393.293 151.693 393.503C151.456 393.713 151.149 393.817 150.771 393.817C150.392 393.817 150.085 393.713 149.848 393.503C149.611 393.293 149.492 393.024 149.492 392.696ZM156.88 394.604L156.956 395.472C157.466 394.802 158.17 394.467 159.068 394.467C159.838 394.467 160.412 394.697 160.791 395.157C161.173 395.618 161.372 396.31 161.385 397.235V402H159.075V397.331C159.075 396.957 159 396.684 158.849 396.511C158.699 396.333 158.425 396.244 158.029 396.244C157.578 396.244 157.243 396.422 157.024 396.777V402H154.72V394.604H156.88ZM163.777 398.247C163.777 397.076 164.029 396.153 164.535 395.479C165.041 394.804 165.748 394.467 166.654 394.467C167.315 394.467 167.871 394.727 168.322 395.246V391.5H170.633V402H168.562L168.446 401.207C167.972 401.827 167.37 402.137 166.641 402.137C165.761 402.137 165.064 401.799 164.549 401.125C164.034 400.451 163.777 399.491 163.777 398.247ZM166.08 398.391C166.08 399.703 166.463 400.359 167.229 400.359C167.739 400.359 168.104 400.145 168.322 399.717V396.9C168.113 396.463 167.753 396.244 167.242 396.244C166.531 396.244 166.146 396.818 166.087 397.967L166.08 398.391ZM176.299 398.773L177.529 394.604H179.997L176.982 403.237L176.852 403.552C176.424 404.509 175.667 404.987 174.583 404.987C174.282 404.987 173.965 404.942 173.633 404.851V403.203H173.933C174.257 403.203 174.503 403.155 174.672 403.06C174.845 402.968 174.972 402.802 175.054 402.561L175.239 402.068L172.669 394.604H175.13L176.299 398.773ZM195.047 398.63C195.015 399.323 194.828 399.936 194.486 400.469C194.145 400.997 193.664 401.408 193.044 401.699C192.429 401.991 191.725 402.137 190.932 402.137C189.624 402.137 188.594 401.711 187.842 400.858C187.09 400.006 186.714 398.803 186.714 397.249V396.757C186.714 395.782 186.882 394.929 187.22 394.2C187.562 393.466 188.051 392.901 188.689 392.505C189.327 392.104 190.066 391.903 190.904 391.903C192.112 391.903 193.083 392.222 193.816 392.86C194.55 393.494 194.967 394.369 195.067 395.485H192.675C192.657 394.879 192.504 394.444 192.217 394.18C191.93 393.915 191.492 393.783 190.904 393.783C190.307 393.783 189.87 394.007 189.592 394.453C189.314 394.9 189.168 395.613 189.154 396.593V397.297C189.154 398.359 189.286 399.118 189.551 399.573C189.82 400.029 190.28 400.257 190.932 400.257C191.483 400.257 191.905 400.127 192.196 399.867C192.488 399.607 192.643 399.195 192.661 398.63H195.047ZM199.906 402H197.595V391.5H199.906V402ZM205.161 402H202.851V394.604H205.161V402ZM202.714 392.696C202.714 392.368 202.833 392.099 203.07 391.89C203.307 391.68 203.614 391.575 203.992 391.575C204.371 391.575 204.678 391.68 204.915 391.89C205.152 392.099 205.271 392.368 205.271 392.696C205.271 393.024 205.152 393.293 204.915 393.503C204.678 393.713 204.371 393.817 203.992 393.817C203.614 393.817 203.307 393.713 203.07 393.503C202.833 393.293 202.714 393.024 202.714 392.696ZM210.102 394.604L210.178 395.472C210.688 394.802 211.392 394.467 212.29 394.467C213.06 394.467 213.634 394.697 214.012 395.157C214.395 395.618 214.594 396.31 214.607 397.235V402H212.297V397.331C212.297 396.957 212.221 396.684 212.071 396.511C211.921 396.333 211.647 396.244 211.251 396.244C210.8 396.244 210.465 396.422 210.246 396.777V402H207.942V394.604H210.102ZM219.972 392.765V394.604H221.189V396.203H219.972V399.587C219.972 399.865 220.022 400.059 220.122 400.168C220.223 400.277 220.421 400.332 220.717 400.332C220.945 400.332 221.136 400.318 221.291 400.291V401.938C220.877 402.071 220.444 402.137 219.993 402.137C219.2 402.137 218.614 401.95 218.236 401.576C217.857 401.202 217.668 400.635 217.668 399.874V396.203H216.725V394.604H217.668V392.765H219.972ZM223.006 398.233C223.006 397.495 223.149 396.839 223.437 396.265C223.724 395.686 224.136 395.242 224.674 394.932C225.212 394.622 225.843 394.467 226.567 394.467C227.675 394.467 228.548 394.811 229.186 395.499C229.824 396.183 230.143 397.115 230.143 398.295V398.377C230.143 399.53 229.821 400.446 229.179 401.125C228.541 401.799 227.675 402.137 226.581 402.137C225.528 402.137 224.683 401.822 224.045 401.193C223.407 400.56 223.063 399.703 223.013 398.623L223.006 398.233ZM225.31 398.377C225.31 399.061 225.417 399.562 225.631 399.881C225.845 400.2 226.162 400.359 226.581 400.359C227.401 400.359 227.821 399.728 227.839 398.466V398.233C227.839 396.907 227.415 396.244 226.567 396.244C225.797 396.244 225.38 396.816 225.316 397.96L225.31 398.377ZM234.673 394.604L234.749 395.472C235.259 394.802 235.963 394.467 236.861 394.467C237.631 394.467 238.205 394.697 238.584 395.157C238.966 395.618 239.165 396.31 239.178 397.235V402H236.868V397.331C236.868 396.957 236.793 396.684 236.642 396.511C236.492 396.333 236.218 396.244 235.822 396.244C235.371 396.244 235.036 396.422 234.817 396.777V402H232.513V394.604H234.673Z" fill="black"/>
<path d="M150.299 418V409.469H153.047C153.801 409.469 154.479 409.641 155.08 409.984C155.682 410.324 156.15 410.807 156.486 411.432C156.826 412.053 156.998 412.75 157.002 413.523V413.916C157.002 414.697 156.836 415.398 156.504 416.02C156.176 416.637 155.711 417.121 155.109 417.473C154.512 417.82 153.844 417.996 153.105 418H150.299ZM152.355 411.057V416.418H153.07C153.66 416.418 154.113 416.209 154.43 415.791C154.746 415.369 154.904 414.744 154.904 413.916V413.547C154.904 412.723 154.746 412.102 154.43 411.684C154.113 411.266 153.652 411.057 153.047 411.057H152.355ZM161.537 418C161.467 417.871 161.404 417.682 161.35 417.432C160.986 417.889 160.479 418.117 159.826 418.117C159.229 418.117 158.721 417.938 158.303 417.578C157.885 417.215 157.676 416.76 157.676 416.213C157.676 415.525 157.93 415.006 158.438 414.654C158.945 414.303 159.684 414.127 160.652 414.127H161.262V413.793C161.262 413.211 161.01 412.92 160.506 412.92C160.037 412.92 159.803 413.15 159.803 413.611H157.828C157.828 412.998 158.088 412.5 158.607 412.117C159.131 411.734 159.797 411.543 160.605 411.543C161.414 411.543 162.053 411.74 162.521 412.135C162.99 412.529 163.23 413.07 163.242 413.758V416.564C163.25 417.146 163.34 417.592 163.512 417.9V418H161.537ZM160.301 416.711C160.547 416.711 160.75 416.658 160.91 416.553C161.074 416.447 161.191 416.328 161.262 416.195V415.182H160.688C160 415.182 159.656 415.49 159.656 416.107C159.656 416.287 159.717 416.434 159.838 416.547C159.959 416.656 160.113 416.711 160.301 416.711ZM166.641 410.084V411.66H167.684V413.031H166.641V415.932C166.641 416.17 166.684 416.336 166.77 416.43C166.855 416.523 167.025 416.57 167.279 416.57C167.475 416.57 167.639 416.559 167.771 416.535V417.947C167.416 418.061 167.045 418.117 166.658 418.117C165.979 418.117 165.477 417.957 165.152 417.637C164.828 417.316 164.666 416.83 164.666 416.178V413.031H163.857V411.66H164.666V410.084H166.641ZM172.037 418C171.967 417.871 171.904 417.682 171.85 417.432C171.486 417.889 170.979 418.117 170.326 418.117C169.729 418.117 169.221 417.938 168.803 417.578C168.385 417.215 168.176 416.76 168.176 416.213C168.176 415.525 168.43 415.006 168.938 414.654C169.445 414.303 170.184 414.127 171.152 414.127H171.762V413.793C171.762 413.211 171.51 412.92 171.006 412.92C170.537 412.92 170.303 413.15 170.303 413.611H168.328C168.328 412.998 168.588 412.5 169.107 412.117C169.631 411.734 170.297 411.543 171.105 411.543C171.914 411.543 172.553 411.74 173.021 412.135C173.49 412.529 173.73 413.07 173.742 413.758V416.564C173.75 417.146 173.84 417.592 174.012 417.9V418H172.037ZM170.801 416.711C171.047 416.711 171.25 416.658 171.41 416.553C171.574 416.447 171.691 416.328 171.762 416.195V415.182H171.188C170.5 415.182 170.156 415.49 170.156 416.107C170.156 416.287 170.217 416.434 170.338 416.547C170.459 416.656 170.613 416.711 170.801 416.711ZM182.32 415.732C182.32 415.432 182.213 415.197 181.998 415.029C181.787 414.861 181.414 414.688 180.879 414.508C180.344 414.328 179.906 414.154 179.566 413.986C178.461 413.443 177.908 412.697 177.908 411.748C177.908 411.275 178.045 410.859 178.318 410.5C178.596 410.137 178.986 409.855 179.49 409.656C179.994 409.453 180.561 409.352 181.189 409.352C181.803 409.352 182.352 409.461 182.836 409.68C183.324 409.898 183.703 410.211 183.973 410.617C184.242 411.02 184.377 411.48 184.377 412H182.326C182.326 411.652 182.219 411.383 182.004 411.191C181.793 411 181.506 410.904 181.143 410.904C180.775 410.904 180.484 410.986 180.27 411.15C180.059 411.311 179.953 411.516 179.953 411.766C179.953 411.984 180.07 412.184 180.305 412.363C180.539 412.539 180.951 412.723 181.541 412.914C182.131 413.102 182.615 413.305 182.994 413.523C183.916 414.055 184.377 414.787 184.377 415.721C184.377 416.467 184.096 417.053 183.533 417.479C182.971 417.904 182.199 418.117 181.219 418.117C180.527 418.117 179.9 417.994 179.338 417.748C178.779 417.498 178.357 417.158 178.072 416.729C177.791 416.295 177.65 415.797 177.65 415.234H179.713C179.713 415.691 179.83 416.029 180.064 416.248C180.303 416.463 180.688 416.57 181.219 416.57C181.559 416.57 181.826 416.498 182.021 416.354C182.221 416.205 182.32 415.998 182.32 415.732ZM188.021 416.594C188.299 416.594 188.514 416.52 188.666 416.371C188.818 416.219 188.893 416.008 188.889 415.738H190.74C190.74 416.434 190.49 417.004 189.99 417.449C189.494 417.895 188.854 418.117 188.068 418.117C187.146 418.117 186.42 417.828 185.889 417.25C185.357 416.672 185.092 415.871 185.092 414.848V414.766C185.092 414.125 185.209 413.561 185.443 413.072C185.682 412.58 186.023 412.203 186.469 411.941C186.914 411.676 187.441 411.543 188.051 411.543C188.875 411.543 189.529 411.771 190.014 412.229C190.498 412.686 190.74 413.305 190.74 414.086H188.889C188.889 413.758 188.809 413.506 188.648 413.33C188.488 413.154 188.273 413.066 188.004 413.066C187.492 413.066 187.193 413.393 187.107 414.045C187.08 414.252 187.066 414.537 187.066 414.9C187.066 415.537 187.143 415.979 187.295 416.225C187.447 416.471 187.689 416.594 188.021 416.594ZM193.658 418H191.678V411.66H193.658V418ZM191.561 410.025C191.561 409.744 191.662 409.514 191.865 409.334C192.068 409.154 192.332 409.064 192.656 409.064C192.98 409.064 193.244 409.154 193.447 409.334C193.65 409.514 193.752 409.744 193.752 410.025C193.752 410.307 193.65 410.537 193.447 410.717C193.244 410.896 192.98 410.986 192.656 410.986C192.332 410.986 192.068 410.896 191.865 410.717C191.662 410.537 191.561 410.307 191.561 410.025ZM197.947 418.117C196.975 418.117 196.188 417.828 195.586 417.25C194.984 416.668 194.684 415.912 194.684 414.982V414.818C194.684 414.17 194.803 413.598 195.041 413.102C195.283 412.605 195.635 412.223 196.096 411.953C196.557 411.68 197.104 411.543 197.736 411.543C198.627 411.543 199.33 411.82 199.846 412.375C200.361 412.926 200.619 413.695 200.619 414.684V415.451H196.693C196.764 415.807 196.918 416.086 197.156 416.289C197.395 416.492 197.703 416.594 198.082 416.594C198.707 416.594 199.195 416.375 199.547 415.938L200.449 417.004C200.203 417.344 199.854 417.615 199.4 417.818C198.951 418.018 198.467 418.117 197.947 418.117ZM197.725 413.066C197.146 413.066 196.803 413.449 196.693 414.215H198.686V414.062C198.693 413.746 198.613 413.502 198.445 413.33C198.277 413.154 198.037 413.066 197.725 413.066ZM203.232 411.66L203.297 412.404C203.734 411.83 204.338 411.543 205.107 411.543C205.768 411.543 206.26 411.74 206.584 412.135C206.912 412.529 207.082 413.123 207.094 413.916V418H205.113V413.998C205.113 413.678 205.049 413.443 204.92 413.295C204.791 413.143 204.557 413.066 204.217 413.066C203.83 413.066 203.543 413.219 203.355 413.523V418H201.381V411.66H203.232ZM210.492 410.084V411.66H211.535V413.031H210.492V415.932C210.492 416.17 210.535 416.336 210.621 416.43C210.707 416.523 210.877 416.57 211.131 416.57C211.326 416.57 211.49 416.559 211.623 416.535V417.947C211.268 418.061 210.896 418.117 210.51 418.117C209.83 418.117 209.328 417.957 209.004 417.637C208.68 417.316 208.518 416.83 208.518 416.178V413.031H207.709V411.66H208.518V410.084H210.492ZM214.4 418H212.42V411.66H214.4V418ZM212.303 410.025C212.303 409.744 212.404 409.514 212.607 409.334C212.811 409.154 213.074 409.064 213.398 409.064C213.723 409.064 213.986 409.154 214.189 409.334C214.393 409.514 214.494 409.744 214.494 410.025C214.494 410.307 214.393 410.537 214.189 410.717C213.986 410.896 213.723 410.986 213.398 410.986C213.074 410.986 212.811 410.896 212.607 410.717C212.404 410.537 212.303 410.307 212.303 410.025ZM218.941 416.219C218.941 416.051 218.854 415.916 218.678 415.814C218.502 415.713 218.168 415.607 217.676 415.498C217.184 415.389 216.777 415.246 216.457 415.07C216.137 414.891 215.893 414.674 215.725 414.42C215.557 414.166 215.473 413.875 215.473 413.547C215.473 412.965 215.713 412.486 216.193 412.111C216.674 411.732 217.303 411.543 218.08 411.543C218.916 411.543 219.588 411.732 220.096 412.111C220.604 412.49 220.857 412.988 220.857 413.605H218.877C218.877 413.098 218.609 412.844 218.074 412.844C217.867 412.844 217.693 412.902 217.553 413.02C217.412 413.133 217.342 413.275 217.342 413.447C217.342 413.623 217.428 413.766 217.6 413.875C217.771 413.984 218.045 414.074 218.42 414.145C218.799 414.215 219.131 414.299 219.416 414.396C220.369 414.725 220.846 415.312 220.846 416.16C220.846 416.738 220.588 417.209 220.072 417.572C219.561 417.936 218.896 418.117 218.08 418.117C217.537 418.117 217.053 418.02 216.627 417.824C216.201 417.629 215.869 417.363 215.631 417.027C215.393 416.691 215.273 416.338 215.273 415.967H217.119C217.127 416.26 217.225 416.475 217.412 416.611C217.6 416.744 217.84 416.811 218.133 416.811C218.402 416.811 218.604 416.756 218.736 416.646C218.873 416.537 218.941 416.395 218.941 416.219ZM224.074 410.084V411.66H225.117V413.031H224.074V415.932C224.074 416.17 224.117 416.336 224.203 416.43C224.289 416.523 224.459 416.57 224.713 416.57C224.908 416.57 225.072 416.559 225.205 416.535V417.947C224.85 418.061 224.479 418.117 224.092 418.117C223.412 418.117 222.91 417.957 222.586 417.637C222.262 417.316 222.1 416.83 222.1 416.178V413.031H221.291V411.66H222.1V410.084H224.074Z" fill="#8EA3ED"/>
<circle r="8" transform="matrix(-1 0 0 1 303 569)" fill="#8767F6"/>
<circle r="8" transform="matrix(-1 0 0 1 279 569)" fill="#8767F6"/>
<circle r="8" transform="matrix(-1 0 0 1 69 569)" fill="#8767F6"/>
<g style="mix-blend-mode:soft-light">
<ellipse cx="190.5" cy="264.5" rx="81.5" ry="85.5" fill="url(#paint0_linear)"/>
</g>
</g>
<defs>
<filter id="filter0_d" x="21" y="44" width="327" height="580" filterUnits="userSpaceOnUse" color-interpolation-filters="sRGB">
<feFlood flood-opacity="0" result="BackgroundImageFix"/>
<feColorMatrix in="SourceAlpha" type="matrix" values="0 0 0 0 0 0 0 0 0 0 0 0 0 0 0 0 0 0 127 0"/>
<feOffset dy="15"/>
<feGaussianBlur stdDeviation="7.5"/>
<feColorMatrix type="matrix" values="0 0 0 0 0 0 0 0 0 0 0 0 0 0 0 0 0 0 0.25 0"/>
<feBlend mode="normal" in2="BackgroundImageFix" result="effect1_dropShadow"/>
<feBlend mode="normal" in="SourceGraphic" in2="effect1_dropShadow" result="shape"/>
</filter>
<filter id="filter1_d" x="55.3998" y="438.104" width="259.683" height="61.612" filterUnits="userSpaceOnUse" color-interpolation-filters="sRGB">
<feFlood flood-opacity="0" result="BackgroundImageFix"/>
<feColorMatrix in="SourceAlpha" type="matrix" values="0 0 0 0 0 0 0 0 0 0 0 0 0 0 0 0 0 0 127 0"/>
<feOffset dy="4"/>
<feGaussianBlur stdDeviation="4"/>
<feColorMatrix type="matrix" values="0 0 0 0 0 0 0 0 0 0 0 0 0 0 0 0 0 0 0.25 0"/>
<feBlend mode="normal" in2="BackgroundImageFix" result="effect1_dropShadow"/>
<feBlend mode="normal" in="SourceGraphic" in2="effect1_dropShadow" result="shape"/>
</filter>
<filter id="filter2_d" x="30" y="49" width="311" height="109" filterUnits="userSpaceOnUse" color-interpolation-filters="sRGB">
<feFlood flood-opacity="0" result="BackgroundImageFix"/>
<feColorMatrix in="SourceAlpha" type="matrix" values="0 0 0 0 0 0 0 0 0 0 0 0 0 0 0 0 0 0 127 0"/>
<feOffset dy="2"/>
<feGaussianBlur stdDeviation="17.5"/>
<feColorMatrix type="matrix" values="0 0 0 0 0 0 0 0 0 0 0 0 0 0 0 0 0 0 0.1 0"/>
<feBlend mode="normal" in2="BackgroundImageFix" result="effect1_dropShadow"/>
<feBlend mode="normal" in="SourceGraphic" in2="effect1_dropShadow" result="shape"/>
</filter>
<filter id="filter3_d" x="83" y="160" width="216" height="217" filterUnits="userSpaceOnUse" color-interpolation-filters="sRGB">
<feFlood flood-opacity="0" result="BackgroundImageFix"/>
<feColorMatrix in="SourceAlpha" type="matrix" values="0 0 0 0 0 0 0 0 0 0 0 0 0 0 0 0 0 0 127 0"/>
<feOffset dy="5"/>
<feGaussianBlur stdDeviation="2"/>
<feColorMatrix type="matrix" values="0 0 0 0 0 0 0 0 0 0 0 0 0 0 0 0 0 0 0.25 0"/>
<feBlend mode="normal" in2="BackgroundImageFix" result="effect1_dropShadow"/>
<feBlend mode="normal" in="SourceGraphic" in2="effect1_dropShadow" result="shape"/>
</filter>
<linearGradient id="paint0_linear" x1="190.5" y1="179" x2="190.5" y2="350" gradientUnits="userSpaceOnUse">
<stop stop-color="#E6E6E6"/>
<stop offset="1" stop-color="#C4C4C4" stop-opacity="0"/>
</linearGradient>
<clipPath id="clip0">
<rect width="360" height="640" fill="white"/>
</clipPath>
</defs>
</svg>
